<?xml version="1.0" encoding="UTF-8"?>
<!DOCTYPE svg PUBLIC "-//W3C//DTD SVG 1.1//EN" "http://www.w3.org/Graphics/SVG/1.1/DTD/svg11.dtd">
<svg xmlns="http://www.w3.org/2000/svg" version="1.1" width="1500px" height="1500px" style="shape-rendering:geometricPrecision; text-rendering:geometricPrecision; image-rendering:optimizeQuality; fill-rule:evenodd; clip-rule:evenodd" xmlns:xlink="http://www.w3.org/1999/xlink">
<g><path style="opacity:1" fill="#fefefe" d="M -0.5,-0.5 C 499.5,-0.5 999.5,-0.5 1499.5,-0.5C 1499.5,499.5 1499.5,999.5 1499.5,1499.5C 999.5,1499.5 499.5,1499.5 -0.5,1499.5C -0.5,999.5 -0.5,499.5 -0.5,-0.5 Z"/></g>
<g><path style="opacity:1" fill="#404040" d="M 670.5,241.5 C 546.5,241.5 422.5,241.5 298.5,241.5C 298.5,247.833 298.5,254.167 298.5,260.5C 297.509,254.021 297.176,247.354 297.5,240.5C 422.001,240.167 546.334,240.5 670.5,241.5 Z"/></g>
<g><path style="opacity:1" fill="#000000" d="M 670.5,241.5 C 760.111,241.572 846.111,259.072 928.5,294C 1062.57,357.203 1147.07,461.036 1182,605.5C 1206.89,724.464 1196.23,840.131 1150,952.5C 1087.33,1089.16 983.16,1176.66 837.5,1215C 796.04,1224.93 754.04,1230.93 711.5,1233C 573.5,1233.5 435.5,1233.67 297.5,1233.5C 297.5,1226.83 297.5,1220.17 297.5,1213.5C 321.646,1205.52 337.146,1189.18 344,1164.5C 350.037,1139.87 353.37,1114.87 354,1089.5C 354.667,863.833 354.667,638.167 354,412.5C 353.82,389.459 352.82,366.459 351,343.5C 349.36,320.912 342.36,300.246 330,281.5C 321.185,271.83 310.685,264.83 298.5,260.5C 298.5,254.167 298.5,247.833 298.5,241.5C 422.5,241.5 546.5,241.5 670.5,241.5 Z"/></g>
<g><path style="opacity:1" fill="#fefefe" d="M 504.5,263.5 C 564.714,260.277 624.381,264.444 683.5,276C 826.417,311.033 925.917,396.533 982,532.5C 1008.75,600.259 1023.75,670.593 1027,743.5C 1030.07,805.519 1026.74,867.186 1017,928.5C 1008.39,980.33 991.058,1029 965,1074.5C 921.58,1141.17 860.747,1183 782.5,1200C 757.094,1205.37 731.427,1208.71 705.5,1210C 663.5,1210.67 621.5,1210.67 579.5,1210C 557.912,1209.83 539.412,1202.33 524,1187.5C 515.692,1176.54 510.358,1164.21 508,1150.5C 506.342,1140.57 505.342,1130.57 505,1120.5C 504.5,834.834 504.333,549.167 504.5,263.5 Z"/></g>
</svg>
